<svg width="62" height="61" viewBox="0 0 62 61" fill="none" xmlns="http://www.w3.org/2000/svg">
<path d="M39.2707 37.1635C39.2707 42.2163 34.4609 42.0995 33.9523 42.0995H24.157V32.3669H33.9523C39.106 32.3669 39.2707 36.1675 39.2707 37.1635ZM33.1979 28.4508C33.279 28.4508 37.8527 28.5699 37.8527 24.1248C37.8527 22.2757 37.4277 19.8512 33.1979 19.8512H24.157V28.4508H33.1979V28.4508ZM58.125 12.7087V48.2913C58.118 50.6486 57.1631 52.9073 55.4689 54.5742C53.7747 56.2411 51.4789 57.1806 49.0829 57.1875H12.9171C10.5211 57.1806 8.22532 56.2411 6.53112 54.5742C4.83693 52.9073 3.88203 50.6486 3.875 48.2913V12.7087C3.88203 10.3514 4.83693 8.09265 6.53112 6.42578C8.22532 4.75891 10.5211 3.81941 12.9171 3.8125H49.0829C51.4789 3.81941 53.7747 4.75891 55.4689 6.42578C57.1631 8.09265 58.118 10.3514 58.125 12.7087V12.7087ZM44.8107 37.87C44.8107 35.3002 44.0055 30.9253 38.8711 29.8459V29.7589C41.6454 28.5937 43.3927 26.3932 43.3927 23.13C43.3927 22.296 43.6349 15.412 33.9959 15.412H18.617V46.5471C34.1448 46.5471 35.5543 46.7472 38.4279 45.8668C40.1486 45.3402 44.8107 43.7246 44.8107 37.87V37.87Z" fill="black"/>
</svg>
