<svg width="52" height="49" viewBox="0 0 52 49" fill="none" xmlns="http://www.w3.org/2000/svg">
<path d="M29.6328 16.3365C31.9318 16.3365 34.1367 15.4759 35.7623 13.9441C37.3879 12.4122 38.3012 10.3346 38.3012 8.16826C38.3012 6.0019 37.3879 3.92427 35.7623 2.39243C34.1367 0.860582 31.9318 0 29.6328 0L12.2961 0C9.99848 0 7.79494 0.860078 6.17026 2.39103C4.54558 3.92198 3.63284 5.99839 3.63284 8.16348C3.63284 10.3286 4.54558 12.405 6.17026 13.9359C7.79494 15.4669 9.99848 16.327 12.2961 16.327C9.99713 16.327 7.7923 17.1875 6.16666 18.7194C4.54103 20.2512 3.62776 22.3289 3.62776 24.4952C3.62776 26.6616 4.54103 28.7392 6.16666 30.271C7.7923 31.8029 9.99713 32.6635 12.2961 32.6635C10.5817 32.6625 8.90545 33.1407 7.47938 34.0374C6.05332 34.9342 4.94148 36.2093 4.28447 37.7015C3.62745 39.1937 3.45477 40.8359 3.78826 42.4206C4.12174 44.0053 4.94642 45.4612 6.158 46.6042C7.36958 47.7472 8.91365 48.526 10.595 48.8421C12.2763 49.1582 14.0193 48.9974 15.6036 48.3801C17.1879 47.7627 18.5424 46.7165 19.4957 45.3738C20.449 44.031 20.9584 42.4521 20.9594 40.8365V16.3365H29.6328ZM29.6328 16.3365C27.9194 16.3365 26.2444 16.8153 24.8198 17.7123C23.3951 18.6093 22.2847 19.8843 21.629 21.376C20.9733 22.8677 20.8017 24.5091 21.136 26.0926C21.4703 27.6762 22.2954 29.1308 23.507 30.2725C24.7186 31.4141 26.2622 32.1916 27.9427 32.5066C29.6232 32.8216 31.3651 32.6599 32.9481 32.0421C34.5311 31.4242 35.8842 30.3779 36.8361 29.0354C37.788 27.6929 38.2961 26.1146 38.2961 24.5C38.2959 22.335 37.383 20.2587 35.7584 18.7278C34.1338 17.1969 31.9304 16.3368 29.6328 16.3365Z" fill="black"/>
</svg>
