<svg width="66" height="66" viewBox="0 0 66 66" fill="none" xmlns="http://www.w3.org/2000/svg">
<g clip-path="url(#clip0_6_42)">
<path d="M55.6875 -1.875H10.3125C6.89648 -1.875 4.125 0.896484 4.125 4.3125V49.6875C4.125 53.1035 6.89648 55.875 10.3125 55.875H55.6875C59.1035 55.875 61.875 53.1035 61.875 49.6875V4.3125C61.875 0.896484 59.1035 -1.875 55.6875 -1.875ZM35.5523 43.1648C35.5523 48.7852 32.2523 51.3504 27.4441 51.3504C23.1 51.3504 20.5863 49.1074 19.2973 46.3875L23.7188 43.7191C24.5695 45.2273 25.343 46.5035 27.2121 46.5035C28.991 46.5035 30.1254 45.8074 30.1254 43.0875V24.641H35.5523V43.1648V43.1648ZM48.3914 51.3504C43.3512 51.3504 40.0898 48.9527 38.5043 45.8074L42.9258 43.2551C44.0859 45.15 45.607 46.5551 48.2754 46.5551C50.5184 46.5551 51.9621 45.4336 51.9621 43.8738C51.9621 42.0176 50.4926 41.3602 48.0047 40.2645L46.6512 39.6844C42.7324 38.0215 40.1414 35.9203 40.1414 31.4988C40.1414 27.4254 43.248 24.3316 48.082 24.3316C51.5367 24.3316 54.0117 25.5305 55.7906 28.6758L51.5625 31.3828C50.6344 29.7199 49.6289 29.0625 48.0691 29.0625C46.4836 29.0625 45.4781 30.068 45.4781 31.3828C45.4781 33.007 46.4836 33.6645 48.8168 34.6828L50.1703 35.2629C54.7852 37.2352 57.3762 39.259 57.3762 43.7965C57.3762 48.6691 53.5348 51.3504 48.3914 51.3504V51.3504Z" fill="black"/>
</g>
<defs>
<clipPath id="clip0_6_42">
<rect width="66" height="66" fill="white"/>
</clipPath>
</defs>
</svg>
