<svg width="76" height="67" viewBox="0 0 76 67" fill="none" xmlns="http://www.w3.org/2000/svg">
<path d="M58.8094 23.1883C58.05 22.9527 57.2906 22.7303 56.5312 22.5209C56.6578 22.0367 56.7703 21.5525 56.8828 21.0684C58.6125 13.2692 57.4734 7.00099 53.6344 4.93341C49.9359 2.95743 43.9031 5.01193 37.8 9.95841C37.1953 10.4426 36.6047 10.9529 36.0422 11.4633C35.6625 11.1231 35.2687 10.7828 34.875 10.4557C28.4766 5.16896 22.0641 2.94435 18.225 5.02501C14.5406 7.01407 13.4437 12.9158 14.9906 20.2963C15.1453 21.0291 15.3141 21.7488 15.5109 22.4817C14.6109 22.7172 13.725 22.9789 12.8953 23.2537C5.38594 25.6746 0 29.4957 0 33.4477C0 37.5305 5.7375 41.6264 13.5422 44.1127C14.175 44.309 14.8078 44.5053 15.4547 44.6754C15.2438 45.4606 15.0609 46.2326 14.8922 47.0309C13.4156 54.2936 14.5688 60.0514 18.2531 62.0274C22.05 64.0688 28.4344 61.975 34.65 56.9108C35.1422 56.5051 35.6344 56.0863 36.1266 55.6414C36.7453 56.2041 37.3922 56.7406 38.0391 57.2641C44.0578 62.0797 50.0063 64.0295 53.6766 62.0535C57.4734 60.0121 58.7109 53.8225 57.1078 46.285C56.9813 45.7092 56.8406 45.1203 56.6859 44.5184C57.1359 44.4006 57.5719 44.2697 58.0078 44.1389C66.1219 41.6395 72 37.5959 72 33.4477C72 29.4826 66.4594 25.6354 58.8094 23.1883V23.1883ZM39.7828 12.0783C45.0141 7.83849 49.8938 6.17657 52.1156 7.36739C54.4922 8.63673 55.4062 13.7664 53.9156 20.5057C53.8172 20.9506 53.7188 21.3824 53.5922 21.8143C50.4703 21.16 47.3062 20.6889 44.1281 20.4272C42.3 17.9932 40.3031 15.6639 38.1375 13.4785C38.6859 12.9943 39.2203 12.5363 39.7828 12.0783V12.0783ZM23.5125 40.2393C24.2297 41.3777 24.9609 42.5162 25.7344 43.6285C23.5406 43.4061 21.3609 43.0789 19.2094 42.6471C19.8281 40.7627 20.6016 38.8129 21.5016 36.8238C22.1484 37.9754 22.8094 39.1139 23.5125 40.2393V40.2393ZM19.2516 24.4969C21.2766 24.0781 23.4281 23.7379 25.6641 23.4762C24.9187 24.5623 24.1875 25.6746 23.4984 26.8C22.8094 27.9123 22.1344 29.0508 21.5016 30.2024C20.6156 28.2526 19.8703 26.342 19.2516 24.4969ZM23.1047 33.5131C24.0328 31.7072 25.0453 29.9406 26.1141 28.2002C27.1828 26.4598 28.3359 24.7717 29.5453 23.1098C31.6547 22.9658 33.8062 22.8873 36 22.8873C38.1938 22.8873 40.3594 22.9658 42.4547 23.1098C43.65 24.7586 44.7891 26.4467 45.8719 28.174C46.9547 29.9014 47.9672 31.668 48.9234 33.4608C47.9812 35.2666 46.9687 37.0463 45.8859 38.7998C44.8172 40.5402 43.6781 42.2283 42.4828 43.9033C40.3875 44.0473 38.2078 44.1127 36 44.1127C33.7922 44.1127 31.6547 44.0473 29.5875 43.9295C28.3641 42.2676 27.2109 40.5664 26.1281 38.826C25.0453 37.0856 24.0469 35.319 23.1047 33.5131ZM48.5016 40.2131C49.2187 39.0615 49.8938 37.8969 50.5547 36.7192C51.4547 38.6166 52.2422 40.5402 52.9312 42.5162C50.7516 42.9742 48.5437 43.3275 46.3219 43.5631C47.0812 42.4639 47.7984 41.3385 48.5016 40.2131ZM50.5266 30.2024C49.8656 29.0508 49.1906 27.8992 48.4875 26.7738C47.7984 25.6615 47.0813 24.5623 46.3359 23.4762C48.6 23.7379 50.7656 24.0912 52.7906 24.5231C52.1437 26.4598 51.3844 28.3442 50.5266 30.2024V30.2024ZM36.0281 15.4807C37.5047 16.9725 38.8969 18.5428 40.1906 20.1654C37.4062 20.0477 34.6078 20.0477 31.8234 20.1654C33.2016 18.4774 34.6219 16.907 36.0281 15.4807ZM19.7156 7.459C22.0781 6.17657 27.3234 8.00861 32.85 12.5625C33.2016 12.8504 33.5531 13.1645 33.9187 13.4785C31.7391 15.6639 29.7281 17.9932 27.8859 20.4272C24.7078 20.6889 21.5578 21.1469 18.4359 21.7881C18.2531 21.1207 18.0984 20.4402 17.9437 19.7598C16.6219 13.4262 17.4937 8.64982 19.7156 7.459V7.459ZM16.2703 41.9535C15.6797 41.7965 15.1031 41.6264 14.5266 41.4432C11.5313 40.5664 8.12812 39.1793 5.66719 37.3604C4.24687 36.4443 3.29062 35.0311 3.02344 33.4477C3.02344 31.0529 7.46719 27.9908 13.8797 25.9102C14.6812 25.6484 15.4969 25.4129 16.3125 25.1904C17.2688 28.0301 18.4219 30.8174 19.7578 33.5131C18.4078 36.2481 17.2406 39.0746 16.2703 41.9535V41.9535ZM32.6672 54.7777C30.3469 56.7537 27.6609 58.324 24.7359 59.3971C23.175 60.0906 21.375 60.1561 19.7719 59.5672C17.5359 58.3633 16.6078 53.744 17.8734 47.5281C18.0281 46.7953 18.1969 46.0625 18.3938 45.3428C21.5438 45.9709 24.7219 46.4027 27.9422 46.6252C29.7984 49.0723 31.8375 51.4147 34.0172 53.6131C33.5672 54.0188 33.1172 54.4113 32.6672 54.7777ZM36.1125 51.5979C34.6781 50.1584 33.2437 48.5619 31.8516 46.8477C33.2016 46.9 34.5938 46.9262 36 46.9262C37.4484 46.9262 38.8687 46.9 40.275 46.8346C38.9812 48.4965 37.5891 50.0799 36.1125 51.5979V51.5979ZM54.4922 55.5236C54.3656 57.1201 53.5219 58.6119 52.1719 59.6195C49.9359 60.8234 45.1688 59.2531 40.0219 55.1442C39.4313 54.6731 38.8406 54.1627 38.2359 53.6393C40.3875 51.4277 42.3703 49.0854 44.1703 46.6252C47.3906 46.3766 50.5969 45.9186 53.7609 45.2512C53.9016 45.7877 54.0281 46.3242 54.1406 46.8477C54.8297 49.6742 54.9422 52.6186 54.4922 55.5236V55.5236ZM57.0516 41.4563C56.6578 41.574 56.2641 41.6918 55.8563 41.7965C54.8719 38.9438 53.6625 36.1565 52.2703 33.4477C53.6203 30.7781 54.7594 28.0301 55.7156 25.2166C56.4469 25.4129 57.15 25.6223 57.825 25.8317C64.3781 27.9254 68.9766 31.0399 68.9766 33.4215C68.9766 35.9863 64.0688 39.2971 57.0516 41.4563ZM36 39.4934C39.5578 39.4934 42.4406 36.8108 42.4406 33.5C42.4406 30.1893 39.5578 27.5067 36 27.5067C32.4422 27.5067 29.5594 30.1893 29.5594 33.5C29.5594 36.8108 32.4422 39.4934 36 39.4934Z" fill="black"/>
</svg>
